<?xml version="1.0" encoding="UTF-8"?>
<svg width="80px" height="72px" viewBox="0 0 80 72" version="1.1" xmlns="http://www.w3.org/2000/svg" xmlns:xlink="http://www.w3.org/1999/xlink">
    <title>77D729C0-5930-4EFF-AC84-9F4BAF955EC6</title>
    <defs>
        <linearGradient x1="0.538168957%" y1="50%" x2="100%" y2="49.9999382%" id="linearGradient-1">
            <stop stop-color="#F4CF00" offset="0%"></stop>
            <stop stop-color="#D0CB28" offset="33.0981275%"></stop>
            <stop stop-color="#A2BE50" offset="67.4923343%"></stop>
            <stop stop-color="#4CA598" offset="100%"></stop>
        </linearGradient>
        <filter color-interpolation-filters="auto" id="filter-2">
            <feColorMatrix in="SourceGraphic" type="matrix" values="0 0 0 0 0.219608 0 0 0 0 0.231373 0 0 0 0 0.254902 0 0 0 0.150000 0"></feColorMatrix>
        </filter>
        <filter color-interpolation-filters="auto" id="filter-3">
            <feColorMatrix in="SourceGraphic" type="matrix" values="0 0 0 0 1.000000 0 0 0 0 1.000000 0 0 0 0 1.000000 0 0 0 1.000000 0"></feColorMatrix>
        </filter>
        <linearGradient x1="0.538168957%" y1="50%" x2="100%" y2="49.9999382%" id="linearGradient-4">
            <stop stop-color="#A99212" offset="0%"></stop>
            <stop stop-color="#BDB823" offset="33.0981275%"></stop>
            <stop stop-color="#87A03C" offset="67.4923343%"></stop>
            <stop stop-color="#2E786E" offset="100%"></stop>
        </linearGradient>
    </defs>
    <g id="Candidate---Dashboard" stroke="none" stroke-width="1" fill="none" fill-rule="evenodd">
        <g id="Candidate---Dashboard---Free-Candidate" transform="translate(-290.000000, -1237.000000)">
            <g id="Profile-Stats" transform="translate(115.000000, 1051.000000)">
                <g id="Upgrade" transform="translate(20.000000, 113.000000)">
                    <g id="Lock" transform="translate(155.000000, 73.000000)">
                        <path d="M11.6984861,44.380239 L11.6984861,65.4975299 C11.6984861,69.0505179 14.5786454,71.9306773 18.1316335,71.9306773 L61.8685259,71.9306773 C65.4215139,71.9306773 68.3016733,69.0505179 68.3016733,65.4975299 L68.3016733,44.380239 L40,35.965259 L11.6984861,44.380239 Z" id="Path" fill="url(#linearGradient-1)" fill-rule="nonzero"></path>
                        <g filter="url(#filter-2)" id="Group">
                            <g transform="translate(0.000000, 21.472629)">
                                <path d="M9.60621514,7.8432271 L4.89179283,3.12864542 C4.17609562,2.41294821 4.17609562,1.25247013 4.89179283,0.536772915 C5.6076494,-0.178764934 6.76796813,-0.179083659 7.48366534,0.536772915 L12.198247,5.25135459 C12.9139442,5.9670518 12.9139442,7.12752989 12.198247,7.8432271 C11.4823904,8.55876495 10.3220717,8.55924303 9.60621514,7.8432271 Z" id="Path" fill="#F7B200" fill-rule="nonzero"></path>
                                <path d="M6.18772908,17.9369323 L1.83266932,17.9369323 C0.820557769,17.9369323 5.66169511e-16,17.1165339 5.66169511e-16,16.104263 C5.66169511e-16,15.091992 0.820557769,14.2715936 1.83266932,14.2715936 L6.18772908,14.2715936 C7.19984064,14.2715936 8.02039841,15.091992 8.02039841,16.104263 C8.02039841,17.1165339 7.19984064,17.9369323 6.18772908,17.9369323 Z" id="Path" fill="#F7B200" fill-rule="nonzero"></path>
                                <path d="M67.8019124,7.8432271 C67.0862151,7.12752989 67.0862151,5.9670518 67.8019124,5.25135459 L72.5163347,0.536772915 C73.2320319,-0.178764934 74.3923506,-0.178764934 75.1082072,0.536772915 C75.8239044,1.25247013 75.8239044,2.41294821 75.1082072,3.12864542 L70.3936255,7.8432271 C69.6777689,8.55908367 68.5176096,8.55892431 67.8019124,7.8432271 Z" id="Path" fill="#F7B200" fill-rule="nonzero"></path>
                                <path d="M78.1673307,17.9369323 L73.8122709,17.9369323 C72.8001594,17.9369323 71.9796016,17.1165339 71.9796016,16.104263 C71.9796016,15.091992 72.8001594,14.2715936 73.8122709,14.2715936 L78.1673307,14.2715936 C79.1794422,14.2715936 80,15.091992 80,16.104263 C80,17.1165339 79.1794422,17.9369323 78.1673307,17.9369323 Z" id="Path" fill="#F7B200" fill-rule="nonzero"></path>
                            </g>
                        </g>
                        <g filter="url(#filter-3)" id="Group">
                            <g transform="translate(42.086375, 65.556175)">
                                <path d="M19.7821514,3.33333333 L17.8352191,3.33333333 C16.9550598,3.33333333 16.2415936,2.587 16.2415936,1.66666667 C16.2415936,0.746333333 16.9550598,0 17.8352191,0 L19.7821514,0 C20.6623108,0 21.3757769,0.746333333 21.3757769,1.66666667 C21.3757769,2.587 20.6623108,3.33333333 19.7821514,3.33333333 Z" id="Path" fill="#A1F5D0" fill-rule="nonzero"></path>
                                <path d="M11.3050199,3.33333333 L1.5936255,3.33333333 C0.713466135,3.33333333 0,2.587 0,1.66666667 C0,0.746333333 0.713466135,0 1.5936255,0 L11.3050199,0 C12.1851793,0 12.8986454,0.746333333 12.8986454,1.66666667 C12.8986454,2.587 12.1851793,3.33333333 11.3050199,3.33333333 Z" id="Path" fill="#A1F5D0" fill-rule="nonzero"></path>
                            </g>
                        </g>
                        <g id="Group" transform="translate(23.871669, 47.315275)" fill-rule="nonzero">
                            <circle id="Oval" fill="#FFFFFF" transform="translate(6.173760, 6.173760) rotate(-67.283128) translate(-6.173760, -6.173760) " cx="6.17376" cy="6.17376" r="4.7178283"></circle>
                            <circle id="Oval" fill="#FFFFFF" transform="translate(26.020356, 6.182290) rotate(-67.283128) translate(-26.020356, -6.182290) " cx="26.0203557" cy="6.18228972" r="4.7178283"></circle>
                            <g transform="translate(2.984487, 2.807026)" fill="#353544">
                                <g id="Oval">
                                    <circle transform="translate(3.229402, 3.385198) rotate(-80.735476) translate(-3.229402, -3.385198) " cx="3.22940175" cy="3.38519809" r="2.81319431"></circle>
                                    <circle transform="translate(23.085055, 3.386934) rotate(-76.644659) translate(-23.085055, -3.386934) " cx="23.0850547" cy="3.38693355" r="2.81319431"></circle>
                                </g>
                                <path d="M13.1438441,8.23323761 C12.3075095,8.23323761 11.4713342,7.91706231 10.7891031,7.28455235 C10.4663939,6.98526948 10.4472704,6.48120574 10.7465533,6.15849657 C11.0456768,5.83578741 11.5498999,5.81698263 11.8726091,6.11578741 C12.6209756,6.80981131 13.6667127,6.80981131 14.4150792,6.11578741 C14.7377884,5.8166639 15.2418521,5.83578741 15.541135,6.15849657 C15.8402585,6.48120574 15.8212943,6.98542884 15.4985852,7.28455235 C14.8163541,7.91706231 13.9801788,8.23323761 13.1438441,8.23323761 L13.1438441,8.23323761 Z" id="Path"></path>
                            </g>
                        </g>
                        <path d="M61.763506,37.576892 L49.3113945,37.576892 L49.3113945,21.7635057 C49.3113945,16.6293225 45.1343427,12.4521114 40,12.4521114 C34.8656574,12.4521114 30.6886056,16.6293225 30.6886056,21.7635057 L30.6886056,37.576892 L18.236494,37.576892 L18.236494,21.7635057 C18.236494,9.76302778 27.9996813,0 40,0 C52.0003188,0 61.763506,9.76318714 61.763506,21.7635057 L61.763506,37.576892 Z" id="Path" fill-opacity="0.2" fill="#383B41" fill-rule="nonzero"></path>
                        <path d="M61.8683665,34.5985657 L18.1316335,34.5985657 C14.5786454,34.5985657 11.6984861,37.4788845 11.6984861,41.0317131 L11.6984861,44.3800797 L68.3016733,44.3800797 L68.3016733,41.0317131 C68.3016733,37.4788845 65.4213546,34.5985657 61.8683665,34.5985657 L61.8683665,34.5985657 Z" id="Path" fill="url(#linearGradient-4)" fill-rule="nonzero"></path>
                    </g>
                </g>
            </g>
        </g>
    </g>
</svg>