<?xml version="1.0" encoding="UTF-8"?>
<svg width="45px" height="52px" viewBox="0 0 45 52" version="1.1" xmlns="http://www.w3.org/2000/svg" xmlns:xlink="http://www.w3.org/1999/xlink">
    <title>icon / PDF</title>
    <g id="icon-/-PDF" stroke="none" stroke-width="1" fill="none" fill-rule="evenodd">
        <g id="PDF" transform="translate(0.000000, 0.000000)" fill-rule="nonzero">
            <path d="M9.25,0.603773585 C7.4625,0.603773585 6,2.03867925 6,3.79245283 L6,48.4339623 C6,50.1877358 7.4625,51.6226415 9.25,51.6226415 L41.75,51.6226415 C43.5375,51.6226415 45,50.1877358 45,48.4339623 L45,13.3584906 L32,0.603773585 L9.25,0.603773585 Z" id="Path" fill="#E2E5E7"></path>
            <path d="M35.25,13.3584906 L45,13.3584906 L32,0.603773585 L32,10.1698113 C32,11.9235849 33.4625,13.3584906 35.25,13.3584906 Z" id="Path" fill="#B0B7BD"></path>
            <polygon id="Path" fill="#CAD1D8" points="45 23.1698113 35 13.3584906 45 13.3584906"></polygon>
            <path d="M39,42.2201258 C39,43.0745283 38.26875,43.7735849 37.375,43.7735849 L1.625,43.7735849 C0.73125,43.7735849 0,43.0745283 0,42.2201258 L0,26.6855346 C0,25.8311321 0.73125,25.1320755 1.625,25.1320755 L37.375,25.1320755 C38.26875,25.1320755 39,25.8311321 39,26.6855346 L39,42.2201258 Z" id="Path" fill="#F15642"></path>
            <g id="Group" transform="translate(7.000000, 30.037736)" fill="#FFFFFF">
                <path d="M0.0744,0.897932075 C0.0744,0.483501887 0.4072,0.0313962264 0.9432,0.0313962264 L3.8984,0.0313962264 C5.5624,0.0313962264 7.06,1.12398491 7.06,3.21811321 C7.06,5.20235472 5.5624,6.30750189 3.8984,6.30750189 L1.7624,6.30750189 L1.7624,7.96522264 C1.7624,8.51779623 1.404,8.83018868 0.9432,8.83018868 C0.5208,8.83018868 0.0744,8.51779623 0.0744,7.96522264 L0.0744,0.897932075 L0.0744,0.897932075 Z M1.7624,1.61219623 L1.7624,4.73926038 L3.8984,4.73926038 C4.756,4.73926038 5.4344,3.99673962 5.4344,3.21811321 C5.4344,2.34058868 4.756,1.61219623 3.8984,1.61219623 L1.7624,1.61219623 Z" id="Shape"></path>
                <path d="M9.5656,8.83018868 C9.1432,8.83018868 8.6824,8.60413585 8.6824,8.05313208 L8.6824,0.923049057 C8.6824,0.472513208 9.1432,0.144422642 9.5656,0.144422642 L12.4952,0.144422642 C18.3416,0.144422642 18.2136,8.83018868 12.6104,8.83018868 L9.5656,8.83018868 L9.5656,8.83018868 Z M10.372,1.67655849 L10.372,7.29962264 L12.4952,7.29962264 C15.9496,7.29962264 16.1032,1.67655849 12.4952,1.67655849 L10.372,1.67655849 L10.372,1.67655849 Z" id="Shape"></path>
                <path d="M20.2872,1.77702642 L20.2872,3.7722566 L23.5496,3.7722566 C24.0104,3.7722566 24.4712,4.22436226 24.4712,4.66233962 C24.4712,5.07676981 24.0104,5.41584906 23.5496,5.41584906 L20.2872,5.41584906 L20.2872,8.05156226 C20.2872,8.49110943 19.9688,8.82861887 19.5208,8.82861887 C18.9576,8.82861887 18.6136,8.49110943 18.6136,8.05156226 L18.6136,0.921479245 C18.6136,0.470943396 18.9592,0.14285283 19.5208,0.14285283 L24.012,0.14285283 C24.5752,0.14285283 24.908,0.470943396 24.908,0.921479245 C24.908,1.32335094 24.5752,1.7754566 24.012,1.7754566 L20.2872,1.7754566 L20.2872,1.77702642 Z" id="Path"></path>
            </g>
            <path d="M36.4,44.2641509 L6,44.2641509 L6,45.7358491 L36.4,45.7358491 C37.28,45.7358491 38,45.0735849 38,44.2641509 L38,42.7924528 C38,43.6018868 37.28,44.2641509 36.4,44.2641509 Z" id="Path" fill="#CAD1D8"></path>
        </g>
    </g>
</svg>